<?xml version="1.0" encoding="utf-8"?>
<!-- Generator: Adobe Illustrator 23.1.0, SVG Export Plug-In . SVG Version: 6.00 Build 0)  -->
<svg version="1.1" id="Layer_1" xmlns="http://www.w3.org/2000/svg" xmlns:xlink="http://www.w3.org/1999/xlink" x="0px" y="0px"
	 viewBox="0 0 512 288" style="enable-background:new 0 0 512 288;" xml:space="preserve">
<style type="text/css">
	.st0{fill:#BFBFBF;}
</style>
<g>
	<path class="st0" d="M475.94,29.03c-1.88,0.55-2.9,1.78-2.9,3.32c-0.07,1.63,1.16,3.07,3.22,3.07c1.96,0,3.22-1.21,3.22-2.87
		C479.48,30.59,478.11,29.64,475.94,29.03z"/>
	<path class="st0" d="M476.55,27.47c1.39-0.47,2.45-1.46,2.45-2.92c0-1.29-0.77-2.62-2.72-2.62c-1.81,0-2.8,1.19-2.8,2.58
		C473.48,26.1,474.7,26.97,476.55,27.47z"/>
	<path class="st0" d="M0,0v288h512V0H0z M398.7,34.35c0.67,0.4,1.98,0.89,3.44,0.89c2.06,0,3.81-1.34,3.81-3.49
		c-0.02-2.08-1.41-3.57-4.63-3.57c-0.92,0-1.63,0.1-2.23,0.17l1.04-7.73h7.7v1.83h-6.14l-0.62,4.14c0.37-0.05,0.72-0.1,1.31-0.1
		c1.24,0,2.48,0.27,3.47,0.87c1.26,0.72,2.3,2.1,2.3,4.14c0,3.15-2.5,5.5-5.99,5.5c-1.76,0-3.24-0.5-4.01-0.99L398.7,34.35z
		 M174.78,48.3c0.65,0.57,1.22,1.14,1.7,1.87c35.26,48.01-18.24,101.54-66.23,66.26c-0.73-0.49-1.3-1.14-1.78-1.78
		C73.29,66.63,126.79,13.11,174.78,48.3z M414.88,251.05H103.61v-38.93l57.96-57.99c3.81-3.81,9.97-3.81,13.78,0l44.99,45.01
		L330.17,89.26c3.81-3.81,9.97-3.81,13.78,0l70.93,70.96V251.05z M417.77,36.73h-2.1V22.66h-0.05l-2.8,1.51l-0.42-1.66l3.52-1.88
		h1.86V36.73z M433.92,36.73h-10.28v-1.34l1.71-1.66c4.11-3.91,5.97-5.99,5.99-8.42c0-1.63-0.79-3.15-3.2-3.15
		c-1.46,0-2.67,0.74-3.42,1.36l-0.69-1.54c1.11-0.94,2.7-1.63,4.56-1.63c3.47,0,4.93,2.38,4.93,4.68c0,2.97-2.15,5.37-5.55,8.64
		l-1.29,1.19v0.05h7.23V36.73z M449.17,36.73l-1.76-2.7c-0.47-0.69-0.87-1.36-1.29-2.08h-0.05c-0.4,0.72-0.82,1.36-1.26,2.08
		l-1.73,2.7h-2.4l4.26-6.12l-4.06-5.87h2.43l1.71,2.58c0.45,0.67,0.82,1.29,1.21,1.96h0.07c0.4-0.72,0.79-1.34,1.19-1.98l1.68-2.55
		h2.35l-4.09,5.8l4.21,6.19H449.17z M468.58,36.73H458.3v-1.34l1.71-1.66c4.11-3.91,5.97-5.99,5.99-8.42c0-1.63-0.79-3.15-3.2-3.15
		c-1.46,0-2.67,0.74-3.42,1.36l-0.69-1.54c1.11-0.94,2.7-1.63,4.56-1.63c3.47,0,4.93,2.38,4.93,4.68c0,2.97-2.15,5.37-5.55,8.64
		l-1.29,1.19v0.05h7.23V36.73z M476.21,37c-3.37,0-5.4-2.01-5.4-4.36c0-2.03,1.21-3.47,3.19-4.31l-0.02-0.07
		c-1.78-0.84-2.55-2.23-2.55-3.62c0-2.55,2.15-4.28,4.98-4.28c3.12,0,4.68,1.96,4.68,3.96c0,1.36-0.67,2.82-2.65,3.76v0.07
		c2.01,0.79,3.24,2.2,3.24,4.16C481.68,35.12,479.28,37,476.21,37z M488.91,37c-3.37,0-5.4-2.01-5.4-4.36
		c0-2.03,1.21-3.47,3.19-4.31l-0.02-0.07c-1.78-0.84-2.55-2.23-2.55-3.62c0-2.55,2.15-4.28,4.98-4.28c3.12,0,4.68,1.96,4.68,3.96
		c0,1.36-0.67,2.82-2.65,3.76v0.07c2.01,0.79,3.24,2.2,3.24,4.16C494.38,35.12,491.98,37,488.91,37z"/>
	<path class="st0" d="M488.64,29.03c-1.88,0.55-2.9,1.78-2.9,3.32c-0.07,1.63,1.16,3.07,3.22,3.07c1.96,0,3.22-1.21,3.22-2.87
		C492.18,30.59,490.82,29.64,488.64,29.03z"/>
	<path class="st0" d="M489.26,27.47c1.39-0.47,2.45-1.46,2.45-2.92c0-1.29-0.77-2.62-2.72-2.62c-1.81,0-2.8,1.19-2.8,2.58
		C486.19,26.1,487.4,26.97,489.26,27.47z"/>
</g>
</svg>
